<?xml version="1.0" standalone="no"?>
<!DOCTYPE svg PUBLIC "-//W3C//DTD SVG 20010904//EN"
 "http://www.w3.org/TR/2001/REC-SVG-20010904/DTD/svg10.dtd">
<svg version="1.0" xmlns="http://www.w3.org/2000/svg"
 width="225.000000pt" height="225.000000pt" viewBox="0 0 225.000000 225.000000"
 preserveAspectRatio="xMidYMid meet">

<g transform="translate(0.000000,225.000000) scale(0.100000,-0.100000)"
fill="#000000" stroke="none">
<path d="M906 2144 c-39 -8 -96 -26 -127 -39 -175 -71 -301 -231 -359 -457
l-23 -86 -76 -38 c-107 -53 -193 -140 -216 -218 -23 -80 -17 -186 14 -248 37
-72 109 -136 212 -187 l92 -46 27 -72 c53 -139 164 -298 256 -365 60 -44 185
-111 237 -128 26 -8 41 -20 48 -38 6 -15 25 -42 42 -61 99 -105 265 -94 345
23 29 44 32 55 32 123 0 86 -12 114 -69 166 -93 84 -217 76 -307 -18 l-51 -53
-74 35 c-56 27 -93 55 -156 118 -69 70 -89 98 -131 186 -79 163 -86 205 -87
474 0 273 13 351 79 490 75 158 187 254 337 290 82 19 276 20 348 0 188 -50
320 -193 380 -415 26 -94 41 -297 41 -554 l0 -199 53 6 c116 12 243 78 307
158 148 187 81 421 -153 533 l-77 37 -16 57 c-51 184 -97 275 -184 362 -67 67
-155 119 -255 150 -94 30 -382 38 -489 14z"/>
</g>
</svg>
