<?xml version="1.0" standalone="no"?>
<!DOCTYPE svg PUBLIC "-//W3C//DTD SVG 20010904//EN"
 "http://www.w3.org/TR/2001/REC-SVG-20010904/DTD/svg10.dtd">
<svg version="1.0" xmlns="http://www.w3.org/2000/svg"
 width="360.000000pt" height="360.000000pt" viewBox="0 0 360.000000 360.000000"
 preserveAspectRatio="xMidYMid meet">

<g transform="translate(0.000000,360.000000) scale(0.100000,-0.100000)"
fill="#000000" stroke="none">
<path d="M1686 3149 c-540 -48 -1002 -415 -1175 -936 -51 -153 -65 -241 -65
-423 0 -131 5 -185 21 -260 41 -181 115 -354 216 -504 200 -296 530 -509 887
-572 132 -23 344 -21 480 4 254 47 495 172 685 354 444 424 550 1050 272 1603
-88 176 -275 390 -429 493 -272 182 -591 268 -892 241z m279 -169 c121 -17
207 -41 315 -89 145 -65 231 -123 350 -237 362 -348 469 -877 269 -1338 -105
-243 -321 -470 -562 -592 -259 -132 -597 -160 -884 -75 -336 100 -629 369
-764 702 -15 38 -39 119 -53 182 -22 95 -26 139 -26 263 0 156 16 255 61 394
68 205 226 421 411 560 174 131 331 196 568 233 51 8 247 6 315 -3z"/>
<path d="M1702 2590 c-47 -11 -103 -59 -130 -111 -46 -88 -14 -200 73 -254 40
-25 59 -30 111 -30 53 0 69 4 106 30 77 55 105 139 78 234 -15 52 -76 109
-134 126 -54 16 -56 16 -104 5z"/>
<path d="M1750 2081 c-94 -29 -207 -131 -260 -235 -39 -78 -43 -122 -14 -142
20 -14 25 -12 68 26 26 22 51 40 57 40 5 0 9 -123 9 -307 0 -282 2 -311 20
-348 39 -83 92 -118 176 -117 106 1 240 107 308 244 39 77 44 108 21 132 -20
19 -40 11 -84 -31 -19 -19 -39 -32 -45 -30 -7 2 -13 109 -16 323 -3 209 -9
328 -17 345 -34 75 -143 124 -223 100z"/>
</g>
</svg>
